<?xml version="1.0" encoding="utf-8"?>
<!-- Generator: Adobe Illustrator 22.0.0, SVG Export Plug-In . SVG Version: 6.00 Build 0)  -->
<svg version="1.1" id="Layer_1" xmlns="http://www.w3.org/2000/svg" xmlns:xlink="http://www.w3.org/1999/xlink" x="0px" y="0px"
	 viewBox="0 0 2095.1 234.4" style="enable-background:new 0 0 2095.1 234.4;" xml:space="preserve">
<style type="text/css">
	.st0{fill:url(#SVGID_1_);}
	.st1{fill:url(#SVGID_2_);}
	.st2{fill:url(#SVGID_3_);}
	.st3{fill:url(#SVGID_4_);}
	.st4{fill:url(#SVGID_5_);}
	.st5{fill:#FF0053;}
</style>
<g id="XMLID_88_">
	<g>
		<linearGradient id="SVGID_1_" gradientUnits="userSpaceOnUse" x1="2037.208" y1="111.7359" x2="2037.208" y2="44.5274">
			<stop  offset="0" style="stop-color:#FF0053"/>
			<stop  offset="1" style="stop-color:#FFFFFF"/>
		</linearGradient>
		<path class="st0" d="M2015.5,115.6c9-8.8,7.3-24.7,7.3-24.7c20.8,10.3,14.2,29.3,14.2,29.3c25.9-13.2,33.7,0,33.7,0
			c-14.9,1.2-18.4,12.2-18.4,12.2l-48.8-8.6c11-7.6,11.9-24.9,11.9-24.9C2020,107.5,2015.9,115,2015.5,115.6z"/>
		<linearGradient id="SVGID_2_" gradientUnits="userSpaceOnUse" x1="1595.9919" y1="39.1472" x2="1595.9919" y2="-49.1059">
			<stop  offset="0" style="stop-color:#FF0053"/>
			<stop  offset="1" style="stop-color:#FFFFFF"/>
		</linearGradient>
		<path class="st1" d="M1615.8,53.9c6.8-3.8,15.1,5.1,15.1,5.1c-12.5,4.2-10.4,14.9-10.4,14.9l-60.2-5.6l2.9-3
			c11-26.2-11.3-47.8-11.3-47.8c20.2-1.2,30.6,26.5,30.6,26.5c4.7-25.9-22-36-22-36c43.7-16.6,41.3,33.6,41.3,33.6
			c18.4-26.7,38.3-21.1,38.3-21.1C1627.2,25.9,1616.1,53.1,1615.8,53.9z"/>
		<linearGradient id="SVGID_3_" gradientUnits="userSpaceOnUse" x1="1477.6122" y1="44.1955" x2="1477.6122" y2="-9.4959">
			<stop  offset="0" style="stop-color:#FF0053"/>
			<stop  offset="1" style="stop-color:#FFFFFF"/>
		</linearGradient>
		<path class="st2" d="M1496.6,63l-34.2-2.6l1.3-2.4c0.2-11.4-12.9-25.1-12.9-25.1c12-6.9,30.1,19.5,30.1,19.5s-0.6-16.2,7.6-23.8
			c8.2-7.6,16,1.7,16,1.7C1487.1,41,1496.6,63,1496.6,63z"/>
		<linearGradient id="SVGID_4_" gradientUnits="userSpaceOnUse" x1="880.7056" y1="32.2255" x2="880.7056" y2="-42.5206">
			<stop  offset="0" style="stop-color:#FF0053"/>
			<stop  offset="1" style="stop-color:#FFFFFF"/>
		</linearGradient>
		<path class="st3" d="M902.4,35.1c0-9.5,5.6-13.9,6-14.2c-4.5,7.9,4.3,23.8,4.3,23.8s-48.3,14-48.2,1c0.2-13-15.7-18.7-15.7-18.7
			c11.4-9,33.4,8.4,33.4,8.4c0.6-17.2,20.2-22.3,20.2-22.3C897.8,22.4,902.1,34.3,902.4,35.1z"/>
		<linearGradient id="SVGID_5_" gradientUnits="userSpaceOnUse" x1="503.507" y1="37.6992" x2="503.507" y2="-146.2192">
			<stop  offset="0" style="stop-color:#FF0053"/>
			<stop  offset="1" style="stop-color:#FFFFFF"/>
		</linearGradient>
		<path class="st4" d="M546.1,49.9c34.9-16.1,44.6-6,44.6-6c-9,0.8-25,17.4-25,17.4s-99,23-112.3,10.2c-13.3-12.7-37.3-2.2-37.3-2.2
			c21.7-25.7,42.6-9.5,42.6-9.5c-0.8-19.5-14.7-34.2-14.7-34.2c17.7-4,30.9,26.9,30.9,26.9c7-31.9-21.9-36.4-21.9-36.4
			c42.4-13.5,40.6,27.7,40.6,27.7c15-6,3.2-32.9,3.2-32.9c11.7,5.7,19.9,34.9,19.9,34.9C539.7,29.9,504.8,0,504.8,0
			C553.6,5.2,546.1,49.9,546.1,49.9z"/>
		<path class="st5" d="M199.4,69.9C173,68.6,182.8,108,182.8,108s-88.3,36.8-82,13.5c6.3-23.3-30.5-18.7-30.5-18.7
			c13.7-12.3,47.5-5.9,47.5-5.9C108.6,69.5,63,92.3,63,92.3c22.4-44.7,59.3-27.5,59.3-27.5c-3.2-32.1,6.4-43.2,6.4-43.2
			c-1.4,12.8,25.1,55.1,25.1,55.1C176.4,37,199.4,69.9,199.4,69.9z"/>
	</g>
	<g>
	</g>
</g>
<path id="XMLID_11_" class="st5" d="M0.2,140v93.3h2094.6V140C2094.9,140,1055.5-77.7,0.2,140z"/>
<path id="XMLID_1_" class="st5" d="M1965.3,118.9c0,0,18.4-13.9,27.4-13.3c0,0-8-11.5-45-1.2c0,0,14.5-42.9-33-55.8
	c0,0,29.7,35.1,4.8,47.2c0,0-3.5-30.1-14.2-37.6c0,0,7.3,28.5-8.4,32c0,0,8.3-40.4-35.7-33.8c0,0,27.8,9,15.9,39.4
	c0,0-8.1-32.6-26.3-31.5c0,0,11.4,16.7,9.1,36.1c0,0-18.1-19.3-43.6,2.6c0,0,25.4-6.5,36.5,8.1
	C1863.9,125.9,1965.3,118.9,1965.3,118.9z"/>
</svg>
