<?xml version="1.0" encoding="utf-8"?>
<!-- Generator: Adobe Illustrator 22.0.0, SVG Export Plug-In . SVG Version: 6.00 Build 0)  -->
<svg version="1.1" id="Capa_1" xmlns="http://www.w3.org/2000/svg" xmlns:xlink="http://www.w3.org/1999/xlink" x="0px" y="0px"
	 viewBox="0 0 508.5 508.5" style="enable-background:new 0 0 508.5 508.5;" xml:space="preserve">
<style type="text/css">
	.st0{fill:#FFFFFF;stroke:#FFFFFF;stroke-width:9;stroke-miterlimit:10;}
</style>
<g>
	<g>
		<g>
			<path class="st0" d="M254.3,0C114.1,0,0,114.1,0,254.3s114.1,254.3,254.3,254.3s254.3-114.1,254.3-254.3S394.5,0,254.3,0z
				 M422.4,117.2c30.3,37,48.5,84,49,135.3c-7.2-1.5-78.9-16.1-151.2-7l-4.7-11.2c-4.5-10.6-9.3-21.1-14.4-31.5
				C381.4,170.1,417.8,123.4,422.4,117.2z M254.3,37.4c55.2,0,105.6,20.7,143.9,54.7c-3.9,5.6-36.5,49.5-113.8,78.4
				c-35.6-65.4-75-119.1-81-127.1C219.7,39.5,236.7,37.4,254.3,37.4z M161.9,58c5.7,7.9,44.5,61.6,80.5,125.6
				c-101.6,27-191,26.6-200.8,26.5C55.7,142.7,101.2,86.7,161.9,58z M37.1,254.6l0.1-6.6c9.5,0.2,114.8,1.6,223.2-30.9
				c6.3,12.2,12.2,24.5,17.6,36.9l-8.6,2.6c-112,36.2-171.6,134.9-176.5,143.3C58.2,361.3,37.1,310.4,37.1,254.6z M254.2,471.7
				c-50.2,0-96.5-17.1-133.3-45.8c3.9-7.9,47.9-92.9,170.4-135.6l1.4-0.5c30.5,79.2,43.1,145.6,46.3,164.7
				C313.1,465.6,284.4,471.8,254.2,471.7z M375.6,434.6c-2.2-13.2-13.8-76.8-42.2-154.8c68-10.9,127.8,7,135.3,9.3
				C459,349.5,424.4,401.7,375.6,434.6z"/>
		</g>
	</g>
</g>
</svg>
