<?xml version="1.0" encoding="utf-8"?>
<!-- Generator: Adobe Illustrator 22.0.0, SVG Export Plug-In . SVG Version: 6.00 Build 0)  -->
<svg version="1.1" id="Layer_1" xmlns="http://www.w3.org/2000/svg" xmlns:xlink="http://www.w3.org/1999/xlink" x="0px" y="0px"
	 viewBox="0 0 576.4 313.1" style="enable-background:new 0 0 576.4 313.1;" xml:space="preserve">
<style type="text/css">
	.st0{fill:url(#SVGID_1_);}
</style>
<linearGradient id="SVGID_1_" gradientUnits="userSpaceOnUse" x1="0" y1="156.5355" x2="576.3889" y2="156.5355">
	<stop  offset="0" style="stop-color:#FF0053"/>
	<stop  offset="1" style="stop-color:#691D91"/>
</linearGradient>
<path class="st0" d="M552.8,132.9H80.6l92.6-92.6c9.2-9.2,9.2-24.2,0-33.4s-24.2-9.2-33.4,0L6.9,139.8c-0.6,0.6-1.1,1.1-1.6,1.7
	c0,0-0.1,0.1-0.1,0.2c-0.4,0.6-0.9,1.1-1.3,1.7c-0.1,0.1-0.1,0.2-0.2,0.2c-0.4,0.6-0.7,1.2-1,1.8c0,0.1-0.1,0.2-0.1,0.3
	c-0.3,0.6-0.6,1.2-0.9,1.8c0,0.1-0.1,0.1-0.1,0.2c-0.3,0.6-0.5,1.3-0.7,2c0,0.1,0,0.1,0,0.2c-0.2,0.7-0.4,1.4-0.5,2.1
	c0,0,0,0.1,0,0.1c-0.1,0.7-0.2,1.4-0.3,2.1c0,0,0,0.1,0,0.1C0,155.1,0,155.8,0,156.5s0,1.5,0.1,2.2c0,0,0,0.1,0,0.1
	c0.1,0.7,0.2,1.4,0.3,2.1c0,0,0,0.1,0,0.1c0.1,0.7,0.3,1.4,0.5,2.1c0,0.1,0,0.1,0,0.2c0.2,0.7,0.4,1.3,0.7,2c0,0.1,0.1,0.1,0.1,0.2
	c0.3,0.6,0.5,1.2,0.9,1.8c0,0.1,0.1,0.2,0.1,0.3c0.3,0.6,0.7,1.2,1,1.8c0.1,0.1,0.1,0.2,0.2,0.2c0.4,0.6,0.8,1.2,1.3,1.7
	c0,0.1,0.1,0.1,0.1,0.2c0.5,0.6,1,1.2,1.6,1.7l132.9,132.9c9.2,9.2,24.2,9.2,33.4,0s9.2-24.2,0-33.4l-92.6-92.6h472.2
	c13,0,23.6-10.6,23.6-23.6S565.8,132.9,552.8,132.9z"/>
</svg>
