<?xml version="1.0" encoding="utf-8"?>
<!-- Generator: Adobe Illustrator 22.0.0, SVG Export Plug-In . SVG Version: 6.00 Build 0)  -->
<svg version="1.1" id="Layer_1" xmlns="http://www.w3.org/2000/svg" xmlns:xlink="http://www.w3.org/1999/xlink" x="0px" y="0px"
	 viewBox="0 0 129.9 149.9" style="enable-background:new 0 0 129.9 149.9;" xml:space="preserve">
<style type="text/css">
	.st0{fill:url(#SVGID_1_);}
	.st1{fill:#EC1E7A;}
</style>
<linearGradient id="SVGID_1_" gradientUnits="userSpaceOnUse" x1="32.8617" y1="50.3078" x2="137.6704" y2="161.3693">
	<stop  offset="0" style="stop-color:#FF0458"/>
	<stop  offset="1" style="stop-color:#691D91"/>
</linearGradient>
<path class="st0" d="M83,42.5c-0.4-4.5-4.2-8.1-8.9-8.1c-4.8,0-8.8,3.8-8.9,8.6c0,0.2,0,0.4,0,0.6c0,4.9-4,8.9-8.9,8.9
	c-2.7,0-5-1.2-6.7-3c-2.2-3.7-6.2-6.3-10.8-6.3c-6.9,0-12.5,5.6-12.5,12.5c0,4,1.9,7.6,4.9,9.9c0,0,0,0,0,0c2.3,2,3.8,5,3.8,8.4
	c0,5.9-4.5,10.7-10.2,10.7c-0.4,0-0.9,0-1.3-0.1c-0.7-0.2-1.5-0.4-2.4-0.4c-4.3,0-7.7,3.5-7.7,7.7c0,4.3,3.5,7.7,7.7,7.7
	c0.3,0,0.5,0,0.8,0c1.9,28,25.3,50.2,53.9,50.2c29.8,0,54-24.2,54-53.9C129.9,68.5,109.5,45.9,83,42.5z M71.7,125
	c-14.8,0-14.4-13.9-14.4-13.9h14.3c0,0,0-29.4,0-40c0-10.6,14.5-11.9,14.5-11.9v52.3C86.1,111.6,86.5,125,71.7,125z"/>
<circle class="st1" cx="55.9" cy="41.8" r="6.4"/>
<circle class="st1" cx="21.9" cy="74" r="6.4"/>
<circle class="st1" cx="4.5" cy="65.3" r="4.5"/>
<circle class="st1" cx="24.5" cy="40.9" r="4.5"/>
<circle class="st1" cx="70.7" cy="23.1" r="4.5"/>
<circle class="st1" cx="15" cy="26" r="2.9"/>
<circle class="st1" cx="7.4" cy="43.8" r="2.9"/>
<circle class="st1" cx="24.9" cy="2.9" r="2.9"/>
<circle class="st1" cx="49.5" cy="23.1" r="2.9"/>
<circle class="st1" cx="55.9" cy="10.9" r="2.9"/>
</svg>
