<?xml version="1.0" encoding="utf-8"?>
<!-- Generator: Adobe Illustrator 22.0.0, SVG Export Plug-In . SVG Version: 6.00 Build 0)  -->
<svg version="1.1" id="Layer_1" xmlns="http://www.w3.org/2000/svg" xmlns:xlink="http://www.w3.org/1999/xlink" x="0px" y="0px"
	 viewBox="0 0 512 512" style="enable-background:new 0 0 512 512;" xml:space="preserve">
<style type="text/css">
	.st0{fill:#FFFFFF;}
	.st1{fill:#EDEDED;}
	.st2{fill:#F3F3F3;}
</style>
<g>
	<path class="st0" d="M499.6,472.4L342,396.6L340.8,53c0-8,8.3-13.3,15.6-9.8L505.8,115c3.8,1.8,6.2,5.6,6.2,9.8v339.8
		C512,471,505.4,475.1,499.6,472.4z"/>
	<path class="st1" d="M342,396.6l-170.7-82.1L335.6,44c2.9-4.8,9-6.6,14-4.2l151.6,72.9c5.8,2.8,7.9,10,4.6,15.5L342,396.6z"/>
	<path class="st1" d="M342,396.6l-170.7-82.1L14.9,59.8c-4.4-7.1,3.2-15.5,10.7-11.9L171.3,118L342,396.6z"/>
	<path class="st2" d="M158.9,472.4l-154-74.1c-3-1.4-4.9-4.5-4.9-7.8V48.9c0-6.1,6.4-10.2,12-7.5L171.3,118v346.7
		C171.3,470.9,164.7,475.1,158.9,472.4z"/>
</g>
</svg>
