<?xml version="1.0" encoding="utf-8"?>
<!-- Generator: Adobe Illustrator 22.0.0, SVG Export Plug-In . SVG Version: 6.00 Build 0)  -->
<svg version="1.1" id="Layer_1" xmlns="http://www.w3.org/2000/svg" xmlns:xlink="http://www.w3.org/1999/xlink" x="0px" y="0px"
	 viewBox="0 0 205.6 344.9" style="enable-background:new 0 0 205.6 344.9;" xml:space="preserve">
<style type="text/css">
	.st0{fill:#3C3B39;}
	.st1{fill:#151515;}
	.st2{fill:#B3B8B9;}
	.st3{fill:#D7D7D7;}
	.st4{fill:#A0A4A5;}
</style>
<g id="XMLID_310_">
	<g id="XMLID_311_">
		<g>
			<polygon class="st0" points="161.9,280.5 170.4,298.5 121.3,267.5 119.4,254.3 			"/>
			<polygon class="st0" points="101.9,257.1 105.1,267.5 93.6,261.1 92.5,253 			"/>
			<polygon class="st1" points="102.4,11 99.3,51.2 32.1,186.9 10.4,200.6 			"/>
			<polygon class="st0" points="101,243.9 101,253 92.9,249.4 92.5,238.9 			"/>
			<polygon class="st0" points="97.7,233 97.7,238.9 91.9,235.3 91.6,229 			"/>
			<polygon class="st0" points="87.8,227.2 90.6,257.9 80.1,251.4 81.7,223.6 			"/>
			<polygon class="st0" points="78.1,221 78.1,248.8 66.6,241.7 72.3,217.2 			"/>
			<polygon class="st0" points="67.1,213.8 63.3,240.4 50.7,232.4 60.3,209.1 			"/>
			<path class="st2" d="M72.3,217.2l-5.7,24.5l11.5,7.2V221L72.3,217.2z M90.6,257.9l-2.8-30.7l-6-3.6l-1.7,27.8L90.6,257.9z
				 M161.9,280.5l-42.5-26.2l1.9,13.2l49.1,31L161.9,280.5z M97.7,238.9V233l-6-4l0.3,6.2L97.7,238.9z M105.1,267.5l-3.2-10.4
				l-9.4-4.2l1.1,8.1L105.1,267.5z M101,253v-9.1l-8.5-5l0.4,10.5L101,253z M165.6,274.9l39.7,64.6L49.4,234.3l1.3-1.9l12.6,7.9
				l3.8-26.6l-6.8-4.7l1.4-2.1L165.6,274.9z"/>
			<polygon class="st0" points="57.3,207.4 48.3,230.2 38.3,222.7 50,202.7 			"/>
			<polygon class="st0" points="47.1,200.8 33,220.2 27.6,216.5 43,198 			"/>
			<polygon class="st0" points="34.5,189.2 7.7,206.3 7.9,205.9 10.4,200.6 32.1,186.9 			"/>
			<path class="st2" d="M48.3,230.2l9-22.8l-7.3-4.7l-11.7,19.9L48.3,230.2z M49.4,234.3L7.7,206.3l26.7-17.1L61.7,207l-1.4,2.1
				l-9.6,23.3L49.4,234.3z M47.1,200.8L43,198l-15.4,18.4l5.5,3.8L47.1,200.8z"/>
			<polygon class="st3" points="10.4,200.6 7.9,205.9 10.3,200.7 			"/>
			<path class="st4" d="M108,0.2l-3.9,50.4L34.5,189.2l-2.4-2.3L99.3,51.2l3.1-40.1l-92,189.6l-0.2,0.1l-2.4,5.1l-0.2,0.4l-4.1,8.3
				c-0.2-0.1-0.4-0.3-0.6-0.4c-2.6-2.1-2.8-5.5-2.8-5.5L102.4,0.2H108z"/>
			<path class="st4" d="M3.7,214.6l4.1-8.3l41.7,28.1l155.9,105.1c-5.6,7.6-9.9,4.6-9.9,4.6L2.9,217.7v-3.3l0.2-0.3
				C3.3,214.3,3.5,214.5,3.7,214.6z"/>
		</g>
		<g>
		</g>
	</g>
</g>
</svg>
