<?xml version="1.0" encoding="utf-8"?>
<!-- Generator: Adobe Illustrator 22.0.0, SVG Export Plug-In . SVG Version: 6.00 Build 0)  -->
<svg version="1.1" id="Layer_1" xmlns="http://www.w3.org/2000/svg" xmlns:xlink="http://www.w3.org/1999/xlink" x="0px" y="0px"
	 viewBox="0 0 2095.1 968" style="enable-background:new 0 0 2095.1 968;" xml:space="preserve">
<style type="text/css">
	.st0{fill:url(#SVGID_1_);}
	.st1{fill:url(#SVGID_2_);}
	.st2{fill:url(#SVGID_3_);}
	.st3{fill:url(#SVGID_4_);}
	.st4{fill:url(#SVGID_5_);}
	.st5{fill:url(#SVGID_6_);}
	.st6{fill:url(#SVGID_7_);}
	.st7{fill:url(#SVGID_8_);}
	.st8{fill:url(#SVGID_9_);}
	.st9{fill:url(#SVGID_10_);}
	.st10{fill:url(#SVGID_11_);}
	.st11{fill:url(#SVGID_12_);}
	.st12{fill:url(#SVGID_13_);}
	.st13{fill:url(#SVGID_14_);}
	.st14{fill:url(#SVGID_15_);}
	.st15{fill:url(#SVGID_16_);}
	.st16{fill:url(#SVGID_17_);}
</style>
<g id="XMLID_88_">
	<g>
		<linearGradient id="SVGID_1_" gradientUnits="userSpaceOnUse" x1="1047.5693" y1="872.6979" x2="1047.5693" y2="-1221.9409">
			<stop  offset="0" style="stop-color:#FF0053"/>
			<stop  offset="1" style="stop-color:#FFFFFF"/>
		</linearGradient>
		<path class="st0" d="M2094.9,874.4v93.3H0.2v-93.3c42.5-8.8,85-16.8,127.4-24.2c-6.2,22.9,79.6-12.6,82-13.5l0,0
			c82.1-12.7,163.6-23.1,244.2-31.3c13.3,12.7,112.3-10.2,112.3-10.2c101.9-8.2,201.8-13.1,298.7-15.6c-0.2,12.8,47.1-0.7,48.1-1h0
			c200.6-3.4,387,3.9,549.8,15.7l31.6,2.4c22.6,1.8,44.7,3.6,66.3,5.5c0.3,0,0.5,0,0.8,0.1l57.1,5.3c0.7,0.1,1.5,0.1,2.2,0.2
			c80.8,7.9,153.4,16.6,215.9,25c38,5.1,72.4,10.1,102.7,14.8c24.2,3.7,45.7,7.2,64.6,10.4l48,8.4l0.7,0.1
			C2080.2,871.4,2094.9,874.4,2094.9,874.4z"/>
		<linearGradient id="SVGID_2_" gradientUnits="userSpaceOnUse" x1="2037.458" y1="845.5334" x2="2037.458" y2="778.325">
			<stop  offset="0" style="stop-color:#FF0053"/>
			<stop  offset="1" style="stop-color:#FFFFFF"/>
		</linearGradient>
		<path class="st1" d="M2015.8,849.4c9-8.8,7.3-24.7,7.3-24.7c20.8,10.3,14.2,29.3,14.2,29.3c25.9-13.2,33.7,0,33.7,0
			c-14.9,1.2-18.4,12.2-18.4,12.2l-0.7-0.1c-13.2-2.4-29.2-5.3-48-8.4c11-7.6,11.9-24.9,11.9-24.9
			C2020.2,841.3,2016.2,848.8,2015.8,849.4z"/>
		<linearGradient id="SVGID_3_" gradientUnits="userSpaceOnUse" x1="2027.8767" y1="861.9715" x2="2027.8767" y2="813.9257">
			<stop  offset="0" style="stop-color:#FF0053"/>
			<stop  offset="1" style="stop-color:#FFFFFF"/>
		</linearGradient>
		<path class="st2" d="M2051.9,866.2l-48-8.4C2022.7,860.9,2038.7,863.8,2051.9,866.2z"/>
		<linearGradient id="SVGID_4_" gradientUnits="userSpaceOnUse" x1="1897.9436" y1="821.6333" x2="1897.9436" y2="698.9333">
			<stop  offset="0" style="stop-color:#FF0053"/>
			<stop  offset="1" style="stop-color:#FFFFFF"/>
		</linearGradient>
		<path class="st3" d="M1922.9,841.1c18.1-20.5,36.4-13.9,36.4-13.9c-12,6.1-20,20.2-20,20.2c-30.3-4.7-64.7-9.7-102.7-14.8l42-28.5
			c0.4,0.8,0.8,1.6,1.2,2.6c-5.5,10.9,4.6,17.1,4.6,17.1c1-3.9-2-11.5-4.6-17.1c0.7-1.4,1.6-2.9,2.9-4.4c5,3.5,10.5,9.5,10.5,9.5
			c8.4-12.8,21.1-15.8,21.5-15.9c-0.2,0.4-3.6,6.2-11.2,15.6c-7.8,9.8,3.7,17.6,3.7,17.6s-2.7-13.2,15.6-21.5
			c18.3-8.3,31.6,7.1,31.6,7.1C1922.4,812.5,1922.9,841.1,1922.9,841.1z"/>
		<linearGradient id="SVGID_5_" gradientUnits="userSpaceOnUse" x1="1862.2039" y1="807.6026" x2="1862.2039" y2="713.7039">
			<stop  offset="0" style="stop-color:#FF0053"/>
			<stop  offset="1" style="stop-color:#FFFFFF"/>
		</linearGradient>
		<path class="st4" d="M1909.2,783.4l-2.8,1.9c-10.2,5.3-16.9,10.1-21.2,14.4l-3,2c-2.2-1.4-4.2-2.3-5.7-2c0,0,1,1.7,2.2,4.3
			l-42,28.5c1.5-11.7-21.3-36.7-21.3-36.7c10.8-5.4,39.9,19.5,39.9,19.5C1861.5,774.7,1909.2,783.4,1909.2,783.4z"/>
		<linearGradient id="SVGID_6_" gradientUnits="userSpaceOnUse" x1="1895.6935" y1="792.5375" x2="1895.6935" y2="771.3129">
			<stop  offset="0" style="stop-color:#FF0053"/>
			<stop  offset="1" style="stop-color:#FFFFFF"/>
		</linearGradient>
		<path class="st5" d="M1906.3,785.3l-21.2,14.4C1889.4,795.4,1896.1,790.6,1906.3,785.3z"/>
		<linearGradient id="SVGID_7_" gradientUnits="userSpaceOnUse" x1="1879.231" y1="801.915" x2="1879.231" y2="796.2365">
			<stop  offset="0" style="stop-color:#FF0053"/>
			<stop  offset="1" style="stop-color:#FFFFFF"/>
		</linearGradient>
		<path class="st6" d="M1882.1,801.8l-3.4,2.3c-1.3-2.6-2.2-4.3-2.2-4.3C1877.8,799.5,1879.9,800.3,1882.1,801.8z"/>
		<linearGradient id="SVGID_8_" gradientUnits="userSpaceOnUse" x1="1596.2419" y1="772.9448" x2="1596.2419" y2="684.6917">
			<stop  offset="0" style="stop-color:#FF0053"/>
			<stop  offset="1" style="stop-color:#FFFFFF"/>
		</linearGradient>
		<path class="st7" d="M1616,787.7c6.8-3.8,15.1,5.1,15.1,5.1c-12.5,4.2-10.4,14.9-10.4,14.9h-0.1c-0.7-0.1-1.5-0.1-2.2-0.2
			c-18.6-1.8-37.7-3.6-57.1-5.3c-0.3,0-0.5,0-0.8-0.1l2.9-3c11-26.2-11.3-47.8-11.3-47.8c20.2-1.2,30.6,26.5,30.6,26.5
			c4.7-25.9-22-36-22-36c43.7-16.6,41.3,33.6,41.3,33.6c18.4-26.7,38.3-21.1,38.3-21.1C1627.5,759.7,1616.4,786.9,1616,787.7z"/>
		<linearGradient id="SVGID_9_" gradientUnits="userSpaceOnUse" x1="1589.8517" y1="804.7535" x2="1589.8517" y2="747.6091">
			<stop  offset="0" style="stop-color:#FF0053"/>
			<stop  offset="1" style="stop-color:#FFFFFF"/>
		</linearGradient>
		<path class="st8" d="M1618.4,807.4l-57.1-5.3C1580.8,803.8,1599.8,805.6,1618.4,807.4z"/>
		<linearGradient id="SVGID_10_" gradientUnits="userSpaceOnUse" x1="1477.8622" y1="777.9931" x2="1477.8622" y2="724.3016">
			<stop  offset="0" style="stop-color:#FF0053"/>
			<stop  offset="1" style="stop-color:#FFFFFF"/>
		</linearGradient>
		<path class="st9" d="M1496.9,796.8l-2.6-0.2c-10.4-0.8-20.9-1.6-31.6-2.4l1.3-2.4c0.2-11.4-12.9-25.1-12.9-25.1
			c12-6.9,30.1,19.5,30.1,19.5s-0.6-16.2,7.6-23.8c8.2-7.6,16,1.7,16,1.7C1487.4,774.8,1496.9,796.8,1496.9,796.8z"/>
		<linearGradient id="SVGID_11_" gradientUnits="userSpaceOnUse" x1="1478.4595" y1="795.3685" x2="1478.4595" y2="763.7853">
			<stop  offset="0" style="stop-color:#FF0053"/>
			<stop  offset="1" style="stop-color:#FFFFFF"/>
		</linearGradient>
		<path class="st10" d="M1494.3,796.6l-31.6-2.4C1473.3,795,1483.8,795.7,1494.3,796.6z"/>
		<linearGradient id="SVGID_12_" gradientUnits="userSpaceOnUse" x1="880.9556" y1="763.2616" x2="880.9556" y2="699.3588">
			<stop  offset="0" style="stop-color:#FF0053"/>
			<stop  offset="1" style="stop-color:#FFFFFF"/>
		</linearGradient>
		<path class="st11" d="M902.6,768.9c0-9.5,5.6-13.9,6-14.2c-4.5,7.9,4.3,23.8,4.3,23.8h0c-16,0.3-32,0.6-48.1,1
			c0.2-13-15.7-18.7-15.7-18.7c11.4-9,33.4,8.4,33.4,8.4c0.6-17.2,20.2-22.3,20.2-22.3C898.1,756.2,902.3,768.1,902.6,768.9z"/>
		<linearGradient id="SVGID_13_" gradientUnits="userSpaceOnUse" x1="888.8184" y1="781.7881" x2="888.8184" y2="733.6436">
			<stop  offset="0" style="stop-color:#FF0053"/>
			<stop  offset="1" style="stop-color:#FFFFFF"/>
		</linearGradient>
		<path class="st12" d="M864.7,779.5c16.1-0.4,32.2-0.8,48.1-1C911.9,778.8,864.6,792.4,864.7,779.5z"/>
		<linearGradient id="SVGID_14_" gradientUnits="userSpaceOnUse" x1="503.757" y1="769.5782" x2="503.757" y2="595.0196">
			<stop  offset="0" style="stop-color:#FF0053"/>
			<stop  offset="1" style="stop-color:#FFFFFF"/>
		</linearGradient>
		<path class="st13" d="M546.4,783.7c34.9-16.1,44.6-6,44.6-6c-9,0.8-25,17.4-25,17.4c-37.2,3-74.6,6.4-112.3,10.2
			c-13.3-12.7-37.3-2.2-37.3-2.2c21.7-25.7,42.6-9.5,42.6-9.5c-0.8-19.5-14.7-34.2-14.7-34.2c17.7-4,30.9,26.9,30.9,26.9
			c7-31.9-21.9-36.4-21.9-36.4c42.4-13.5,40.6,27.7,40.6,27.7c15-6,3.2-32.9,3.2-32.9c11.7,5.7,19.9,34.9,19.9,34.9
			c22.7-16-12.2-45.9-12.2-45.9C553.9,739,546.4,783.7,546.4,783.7z"/>
		<linearGradient id="SVGID_15_" gradientUnits="userSpaceOnUse" x1="509.9427" y1="802.1555" x2="509.9427" y2="689.8795">
			<stop  offset="0" style="stop-color:#FF0053"/>
			<stop  offset="1" style="stop-color:#FFFFFF"/>
		</linearGradient>
		<path class="st14" d="M566.1,795.1c0,0-99,23-112.3,10.2C491.5,801.5,528.9,798.1,566.1,795.1z"/>
		<linearGradient id="SVGID_16_" gradientUnits="userSpaceOnUse" x1="158.0598" y1="800.2205" x2="158.0598" y2="663.7581">
			<stop  offset="0" style="stop-color:#FF0053"/>
			<stop  offset="1" style="stop-color:#FFFFFF"/>
		</linearGradient>
		<path class="st15" d="M226.3,798.6c-26.5-1.4-16.6,38.1-16.6,38.1s0,0,0,0l0,0c-27.3,4.2-54.6,8.7-82,13.5
			c6.3-23.3-30.5-18.7-30.5-18.7c13.7-12.3,47.5-5.9,47.5-5.9c-9.1-27.4-54.8-4.6-54.8-4.6c22.4-44.7,59.3-27.5,59.3-27.5
			c-3.2-32.1,6.4-43.2,6.4-43.2c-1.4,12.8,25.1,55.1,25.1,55.1C203.3,765.7,226.3,798.6,226.3,798.6z"/>
		<linearGradient id="SVGID_17_" gradientUnits="userSpaceOnUse" x1="168.4635" y1="847.3103" x2="168.4635" y2="765.0386">
			<stop  offset="0" style="stop-color:#FF0053"/>
			<stop  offset="1" style="stop-color:#FFFFFF"/>
		</linearGradient>
		<path class="st16" d="M209.6,836.7c-2.3,0.9-88.1,36.4-82,13.5v0C155,845.4,182.3,840.9,209.6,836.7z"/>
	</g>
	<g>
	</g>
</g>
</svg>
