<?xml version="1.0" encoding="utf-8"?>
<!-- Generator: Adobe Illustrator 22.0.0, SVG Export Plug-In . SVG Version: 6.00 Build 0)  -->
<svg version="1.1" id="Layer_1" xmlns="http://www.w3.org/2000/svg" xmlns:xlink="http://www.w3.org/1999/xlink" x="0px" y="0px"
	 viewBox="0 0 39.2 36.4" style="enable-background:new 0 0 39.2 36.4;" xml:space="preserve">
<style type="text/css">
	.st0{fill:url(#SVGID_1_);}
	.st1{fill:url(#SVGID_2_);}
	.st2{fill:url(#SVGID_3_);}
	.st3{fill:url(#SVGID_4_);}
	.st4{fill:url(#SVGID_5_);}
</style>
<linearGradient id="SVGID_1_" gradientUnits="userSpaceOnUse" x1="15.477" y1="-5.7875" x2="43.1494" y2="22.9186" gradientTransform="matrix(0.6859 -0.6859 0.738 0.738 8.640702e-02 21.6422)">
	<stop  offset="0" style="stop-color:#691D91"/>
	<stop  offset="1" style="stop-color:#FF0458"/>
</linearGradient>
<path class="st0" d="M38.4,15.4L38.4,15.4c-1,1-2.7,1-3.7,0L23.9,4.6c-1-1-1-2.7,0-3.7l0,0c1-1,2.7-1,3.7,0l10.8,10.8
	C39.4,12.7,39.4,14.3,38.4,15.4z"/>
<linearGradient id="SVGID_2_" gradientUnits="userSpaceOnUse" x1="10.9114" y1="31.7052" x2="10.9114" y2="31.7052">
	<stop  offset="0" style="stop-color:#691D91"/>
	<stop  offset="1" style="stop-color:#FF0458"/>
</linearGradient>
<path class="st1" d="M10.9,31.7"/>
<linearGradient id="SVGID_3_" gradientUnits="userSpaceOnUse" x1="15.6556" y1="27.9085" x2="15.6556" y2="27.9085">
	<stop  offset="0" style="stop-color:#691D91"/>
	<stop  offset="1" style="stop-color:#FF0458"/>
</linearGradient>
<path class="st2" d="M15.7,27.9"/>
<linearGradient id="SVGID_4_" gradientUnits="userSpaceOnUse" x1="3.8511" y1="5.4197" x2="31.5236" y2="34.1258">
	<stop  offset="0" style="stop-color:#691D91"/>
	<stop  offset="1" style="stop-color:#FF0458"/>
</linearGradient>
<path class="st3" d="M0.8,11.7c-1,1-1,2.7,0,3.7c2.1,2.1,4.4-0.7,5.9-2.1c2.2-2.2,4.4-4.3,6.6-6.5c0,0,0.1-0.1,0.1-0.1
	c0.2-0.2,0.6-0.2,0.8,0c1.4,1.4,6.2,6.2,6.2,6.2l6.8,6.8c2.7,2.7,3,7.1,0.4,9.9c-2.6,2.8-7.1,2.9-9.8,0.3l-2.1-2l-2-1.8
	c-0.9-0.9-2.4-0.8-3.2,0.1l-0.1,0.1c-0.9,0.9-0.8,2.4,0.1,3.2c0,0,2.6,2.4,2.6,2.4c0.3,0.3,0.7,0.6,1,0.9l0.4,0.4
	c0.1,0.1,0.3,0.2,0.4,0.3c1.4,1.1,2.9,2.1,4.6,2.5c0.5,0.1,1.7,0.4,3.1,0.4c6.6,0,11.9-5.3,11.9-11.9c0-1.4-0.3-2.8-0.7-4.1
	c-0.5-1.4-1.3-2.7-2.3-3.8c-0.4-0.4-0.8-0.8-1.1-1.1c-0.3-0.3-0.7-0.7-1-1c-0.5-0.5-0.9-0.9-1.4-1.4c-0.6-0.6-1.1-1.1-1.7-1.7
	c-0.6-0.6-1.2-1.2-1.8-1.9c-0.6-0.6-1.3-1.3-1.9-1.9c-0.6-0.6-1.2-1.2-1.8-1.9c-0.6-0.6-1.1-1.1-1.7-1.7c-0.5-0.5-0.9-0.9-1.4-1.4
	c-0.3-0.3-0.7-0.7-1-1c-0.2-0.2-0.4-0.4-0.5-0.5c0,0,0,0-0.1-0.1c-1.1-1.2-3-1.2-4.2,0"/>
<linearGradient id="SVGID_5_" gradientUnits="userSpaceOnUse" x1="2.5526" y1="9.967" x2="2.5526" y2="9.967">
	<stop  offset="0" style="stop-color:#691D91"/>
	<stop  offset="1" style="stop-color:#FF0458"/>
</linearGradient>
<path class="st4" d="M2.6,10"/>
</svg>
